<svg class="svg-icon" style="width: 1em; height: 1em;vertical-align: middle;fill: #ffffff;overflow: hidden;" viewBox="0 0 1024 1024" version="1.1" xmlns="http://www.w3.org/2000/svg"><path d="M512 65C265.146 65 65 265.146 65 512c0 246.853 200.147 447 447 447 246.854 0 447-200.147 447-447C959 265.146 758.854 65 512 65zM512 94.8c230.048 0 417.199 187.152 417.199 417.2 0 104.822-38.951 200.671-103.018 274.034-1.603-4.685-3.203-9.385-5.021-13.968-31.08-78.547-94.129-143.471-173.474-178.365-0.218-0.087-0.421-0.159-0.626-0.262 31.647-33.38 51.189-78.367 51.189-128.002 0-102.875-83.377-186.25-186.25-186.25-102.874 0-186.25 83.375-186.25 186.25 0 49.648 19.555 94.652 51.218 128.046-0.394 0.175-0.742 0.291-1.15 0.466-78.851 34.646-141.898 99.57-172.98 178.117-1.818 4.598-3.418 9.283-5.019 13.968C133.753 712.671 94.8 616.822 94.8 512 94.8 281.952 281.952 94.8 512 94.8zM616.314 581.697c-9.313 8.366-19.541 15.729-30.657 21.697-21.975 11.77-47.03 18.491-73.657 18.491-26.628 0-51.714-6.722-73.686-18.507-11.117-5.968-21.316-13.315-30.629-21.682-31.909-28.664-52.135-70.091-52.135-116.26 0-86.272 70.178-156.45 156.45-156.45s156.449 70.177 156.449 156.45C668.449 511.606 648.225 553.033 616.314 581.697zM221.101 810.653c1.062-3.885 2.095-7.813 3.302-11.494 26.963-82.721 92.5-151.082 176.909-184.185 30.965 22.96 69.174 36.714 110.688 36.714 41.5 0 79.693-13.735 110.644-36.686 83.799 32.349 149.858 100.999 176.968 184.156 1.193 3.666 2.226 7.594 3.288 11.494C727.687 883.933 625.06 929.199 512 929.199S296.313 883.933 221.101 810.653z"  /></svg>